<mxfile host="65bd71144e">
    <diagram id="6UB5hXzRdFURlX1MvBVX" name="Page-1">
        <mxGraphModel dx="1378" dy="815" grid="1" gridSize="10" guides="1" tooltips="1" connect="1" arrows="1" fold="1" page="1" pageScale="1" pageWidth="850" pageHeight="1100" math="0" shadow="0">
            <root>
                <mxCell id="0"/>
                <mxCell id="1" parent="0"/>
                <mxCell id="2" value="" style="endArrow=none;html=1;" edge="1" parent="1" target="4">
                    <mxGeometry width="50" height="50" relative="1" as="geometry">
                        <mxPoint x="240" y="40" as="sourcePoint"/>
                        <mxPoint x="600" y="40" as="targetPoint"/>
                    </mxGeometry>
                </mxCell>
                <mxCell id="3" value="" style="endArrow=none;html=1;" edge="1" parent="1">
                    <mxGeometry width="50" height="50" relative="1" as="geometry">
                        <mxPoint x="240" y="250" as="sourcePoint"/>
                        <mxPoint x="600" y="250" as="targetPoint"/>
                        <Array as="points">
                            <mxPoint x="250" y="250"/>
                        </Array>
                    </mxGeometry>
                </mxCell>
                <mxCell id="4" value="&lt;font style=&quot;font-size: 16px&quot;&gt;UW rainier&lt;/font&gt;" style="text;html=1;strokeColor=none;fillColor=none;align=center;verticalAlign=middle;whiteSpace=wrap;rounded=0;fontColor=#FFFF99;" vertex="1" parent="1">
                    <mxGeometry x="600" y="30" width="100" height="20" as="geometry"/>
                </mxCell>
                <mxCell id="5" value="&lt;font style=&quot;font-size: 16px&quot;&gt;WSU aeolus&lt;/font&gt;" style="text;html=1;strokeColor=none;fillColor=none;align=center;verticalAlign=middle;whiteSpace=wrap;rounded=0;fontColor=#66FF66;" vertex="1" parent="1">
                    <mxGeometry x="605" y="240" width="100" height="20" as="geometry"/>
                </mxCell>
                <mxCell id="8" value="" style="edgeStyle=orthogonalEdgeStyle;rounded=0;orthogonalLoop=1;jettySize=auto;html=1;" edge="1" parent="1" source="6" target="7">
                    <mxGeometry relative="1" as="geometry"/>
                </mxCell>
                <mxCell id="6" value="Daily WRF runs" style="rounded=1;whiteSpace=wrap;html=1;align=center;verticalAlign=middle;fontColor=#FFFF99;" vertex="1" parent="1">
                    <mxGeometry x="365" y="50" width="120" height="30" as="geometry"/>
                </mxCell>
                <mxCell id="11" value="" style="edgeStyle=orthogonalEdgeStyle;rounded=0;orthogonalLoop=1;jettySize=auto;html=1;" edge="1" parent="1" source="7" target="9">
                    <mxGeometry relative="1" as="geometry"/>
                </mxCell>
                <mxCell id="7" value="AQSIM_AIRPACT.pl" style="rounded=1;whiteSpace=wrap;html=1;align=center;verticalAlign=middle;fontColor=#FFFF99;" vertex="1" parent="1">
                    <mxGeometry x="365" y="100" width="120" height="30" as="geometry"/>
                </mxCell>
                <mxCell id="14" value="" style="edgeStyle=orthogonalEdgeStyle;rounded=0;orthogonalLoop=1;jettySize=auto;html=1;" edge="1" parent="1" source="9" target="13">
                    <mxGeometry relative="1" as="geometry"/>
                </mxCell>
                <mxCell id="9" value="AQSIM_AIRPACT_wMCIP5.1.pl" style="rounded=1;whiteSpace=wrap;html=1;align=center;verticalAlign=middle;fontColor=#FFFF99;" vertex="1" parent="1">
                    <mxGeometry x="330" y="150" width="190" height="30" as="geometry"/>
                </mxCell>
                <mxCell id="16" value="" style="edgeStyle=orthogonalEdgeStyle;rounded=0;orthogonalLoop=1;jettySize=auto;html=1;" edge="1" parent="1" source="13" target="15">
                    <mxGeometry relative="1" as="geometry"/>
                </mxCell>
                <mxCell id="13" value="AP5_mcip5.1_37_DAY1.csh" style="rounded=1;whiteSpace=wrap;html=1;align=center;verticalAlign=middle;fontColor=#FFFF99;" vertex="1" parent="1">
                    <mxGeometry x="330" y="200" width="190" height="30" as="geometry"/>
                </mxCell>
                <mxCell id="21" value="" style="edgeStyle=orthogonalEdgeStyle;rounded=0;orthogonalLoop=1;jettySize=auto;html=1;" edge="1" parent="1" source="15" target="18">
                    <mxGeometry relative="1" as="geometry"/>
                </mxCell>
                <mxCell id="22" style="edgeStyle=orthogonalEdgeStyle;rounded=0;orthogonalLoop=1;jettySize=auto;html=1;entryX=0.5;entryY=0;entryDx=0;entryDy=0;" edge="1" parent="1" source="15" target="19">
                    <mxGeometry relative="1" as="geometry"/>
                </mxCell>
                <mxCell id="23" style="edgeStyle=orthogonalEdgeStyle;rounded=0;orthogonalLoop=1;jettySize=auto;html=1;entryX=0.5;entryY=0;entryDx=0;entryDy=0;" edge="1" parent="1" source="15" target="17">
                    <mxGeometry relative="1" as="geometry"/>
                </mxCell>
                <mxCell id="15" value="master4all.csh" style="rounded=1;whiteSpace=wrap;html=1;align=center;verticalAlign=middle;fontColor=#66FF66;" vertex="1" parent="1">
                    <mxGeometry x="360" y="270" width="120" height="30" as="geometry"/>
                </mxCell>
                <mxCell id="29" style="edgeStyle=orthogonalEdgeStyle;rounded=0;orthogonalLoop=1;jettySize=auto;html=1;entryX=0.5;entryY=0;entryDx=0;entryDy=0;" edge="1" parent="1" source="17" target="28">
                    <mxGeometry relative="1" as="geometry"/>
                </mxCell>
                <mxCell id="17" value="MEGAN_PARALLEL" style="rounded=1;whiteSpace=wrap;html=1;align=center;verticalAlign=middle;fontColor=#66FF66;" vertex="1" parent="1">
                    <mxGeometry x="520" y="360" width="160" height="30" as="geometry"/>
                </mxCell>
                <mxCell id="25" value="" style="edgeStyle=orthogonalEdgeStyle;rounded=0;orthogonalLoop=1;jettySize=auto;html=1;" edge="1" parent="1" source="18" target="24">
                    <mxGeometry relative="1" as="geometry"/>
                </mxCell>
                <mxCell id="18" value="FIS_BSP" style="rounded=1;whiteSpace=wrap;html=1;align=center;verticalAlign=middle;fontColor=#66FF66;" vertex="1" parent="1">
                    <mxGeometry x="360" y="360" width="120" height="30" as="geometry"/>
                </mxCell>
                <mxCell id="27" style="edgeStyle=orthogonalEdgeStyle;rounded=0;orthogonalLoop=1;jettySize=auto;html=1;" edge="1" parent="1" source="19" target="26">
                    <mxGeometry relative="1" as="geometry"/>
                </mxCell>
                <mxCell id="19" value="PRECCTM" style="rounded=1;whiteSpace=wrap;html=1;align=center;verticalAlign=middle;fontColor=#66FF66;" vertex="1" parent="1">
                    <mxGeometry x="240" y="360" width="80" height="30" as="geometry"/>
                </mxCell>
                <mxCell id="37" style="edgeStyle=orthogonalEdgeStyle;rounded=0;orthogonalLoop=1;jettySize=auto;html=1;" edge="1" parent="1" source="24" target="30">
                    <mxGeometry relative="1" as="geometry"/>
                </mxCell>
                <mxCell id="24" value="EMIS_FIRE_ORL" style="rounded=1;whiteSpace=wrap;html=1;align=center;verticalAlign=middle;fontColor=#66FF66;" vertex="1" parent="1">
                    <mxGeometry x="360" y="440" width="120" height="30" as="geometry"/>
                </mxCell>
                <mxCell id="33" style="edgeStyle=orthogonalEdgeStyle;rounded=0;orthogonalLoop=1;jettySize=auto;html=1;" edge="1" parent="1" source="26" target="30">
                    <mxGeometry relative="1" as="geometry"/>
                </mxCell>
                <mxCell id="26" value="CCTM" style="rounded=1;whiteSpace=wrap;html=1;align=center;verticalAlign=middle;fontColor=#66FF66;" vertex="1" parent="1">
                    <mxGeometry x="240" y="520" width="80" height="30" as="geometry"/>
                </mxCell>
                <mxCell id="34" style="edgeStyle=orthogonalEdgeStyle;rounded=0;orthogonalLoop=1;jettySize=auto;html=1;" edge="1" parent="1" source="28" target="30">
                    <mxGeometry relative="1" as="geometry"/>
                </mxCell>
                <mxCell id="28" value="PLOT_NONCCTM" style="rounded=1;whiteSpace=wrap;html=1;align=center;verticalAlign=middle;fontColor=#66FF66;" vertex="1" parent="1">
                    <mxGeometry x="520" y="520" width="160" height="30" as="geometry"/>
                </mxCell>
                <mxCell id="35" value="" style="edgeStyle=orthogonalEdgeStyle;rounded=0;orthogonalLoop=1;jettySize=auto;html=1;" edge="1" parent="1" source="30" target="31">
                    <mxGeometry relative="1" as="geometry"/>
                </mxCell>
                <mxCell id="30" value="POSTCCTM" style="rounded=1;whiteSpace=wrap;html=1;align=center;verticalAlign=middle;fontColor=#66FF66;" vertex="1" parent="1">
                    <mxGeometry x="360" y="600" width="120" height="30" as="geometry"/>
                </mxCell>
                <mxCell id="36" value="" style="edgeStyle=orthogonalEdgeStyle;rounded=0;orthogonalLoop=1;jettySize=auto;html=1;" edge="1" parent="1" source="31" target="32">
                    <mxGeometry relative="1" as="geometry"/>
                </mxCell>
                <mxCell id="31" value="PLOT_CCTM" style="rounded=1;whiteSpace=wrap;html=1;align=center;verticalAlign=middle;fontColor=#66FF66;" vertex="1" parent="1">
                    <mxGeometry x="360" y="680" width="120" height="30" as="geometry"/>
                </mxCell>
                <mxCell id="32" value="CLEANUP" style="rounded=1;whiteSpace=wrap;html=1;align=center;verticalAlign=middle;fontColor=#66FF66;" vertex="1" parent="1">
                    <mxGeometry x="360" y="760" width="120" height="30" as="geometry"/>
                </mxCell>
            </root>
        </mxGraphModel>
    </diagram>
</mxfile>